<?xml version="1.0" encoding="UTF-8" standalone="no"?>
<svg width="26px" height="20px" viewBox="0 0 26 20" version="1.1" xmlns="http://www.w3.org/2000/svg" xmlns:xlink="http://www.w3.org/1999/xlink" xmlns:sketch="http://www.bohemiancoding.com/sketch/ns">
    <!-- Generator: Sketch 3.3.3 (12081) - http://www.bohemiancoding.com/sketch -->
    <title>Shape</title>
    <desc>Created with Sketch.</desc>
    <defs></defs>
    <g id="Page-1" stroke="none" stroke-width="1" fill="none" fill-rule="evenodd" sketch:type="MSPage">
        <path d="M8.5,0 L8.1875,0.40625 L7,2 L1,2 L0,2 L0,3 L0,19 L0,20 L1,20 L25,20 L26,20 L26,19 L26,3 L26,2 L25,2 L19,2 L17.8125,0.40625 L17.5,0 L17,0 L9,0 L8.5,0 L8.5,0 Z M9.5,2 L16.5,2 L17.6875,3.59375 L18,4 L18.5,4 L24,4 L24,18 L2,18 L2,4 L7.5,4 L8,4 L8.3125,3.59375 L9.5,2 L9.5,2 Z M5,5 C4.4477153,5 4,5.447715 4,6 C4,6.552285 4.4477153,7 5,7 C5.5522847,7 6,6.552285 6,6 C6,5.447715 5.5522847,5 5,5 L5,5 Z M13,5 C9.698136,5 7,7.698136 7,11 C7,14.301864 9.698136,17 13,17 C16.301864,17 19,14.301864 19,11 C19,7.698136 16.301864,5 13,5 L13,5 Z M13,7 C15.220984,7 17,8.779016 17,11 C17,13.220984 15.220984,15 13,15 C10.779016,15 9,13.220984 9,11 C9,8.779016 10.779016,7 13,7 L13,7 Z" id="Shape" fill="#fbfbfb" sketch:type="MSShapeGroup"></path>
    </g>
</svg>